<svg width="325" height="325" viewBox="0 0 325 325" fill="none" xmlns="http://www.w3.org/2000/svg">
<rect width="325" height="325" fill="black"/>
<path d="M90.7841 148.52V115.707H96.3523V148.52H90.7841ZM77.1619 134.898V129.33H109.974V134.898H77.1619Z" fill="white"/>
<path d="M227.784 148.52V115.707H233.352V148.52H227.784ZM214.162 134.898V129.33H246.974V134.898H214.162Z" fill="white"/>
<path d="M104.474 207.966V211.091H91.7472V207.966H104.474ZM122.873 207.966V211.091H110.146V207.966H122.873ZM141.271 207.966V211.091H128.544V207.966H141.271ZM159.67 207.966V211.091H146.942V207.966H159.67ZM178.068 207.966V211.091H165.341V207.966H178.068ZM196.467 207.966V211.091H183.739V207.966H196.467ZM214.865 207.966V211.091H202.138V207.966H214.865ZM233.263 207.966V211.091H220.536V207.966H233.263Z" fill="white"/>
</svg>
